<svg width="590" height="623" viewBox="0 0 590 623" fill="none" xmlns="http://www.w3.org/2000/svg">
<path d="M361.62 427.77C397.17 408.5 429 384.71 448.05 349C448.05 344.33 409.95 302.92 357.35 301.04C305.8 354.94 272.22 350.14 202.45 349.94C187.2 350.42 171.59 349.56 156.26 349.98H137.13V452.62H174.3V452.55C237.22 452.21 304.64 459.87 361.63 427.77H361.62Z" fill="url(#paint0_linear_8_25)"/>
<path d="M583.15 344.71C572.14 301.95 548.2 263.47 514.77 234.1C507.78 226.94 499 219.92 488.87 213.66C488.77 213.54 488.6 213.44 488.4 213.37C487.21 212.64 486.01 211.92 484.79 211.22C484.08 210.81 483.38 210.42 482.67 210.03C482.37 207.82 482.04 205.59 481.65 203.34C479.92 193.16 477.49 183.55 474.58 174.78C456.36 102.09 405.34 45.1704 337.5 16.6804C303.18 0.880361 256.39 -1.72964 217.5 0.880358C153 9.37036 94.34 44.2703 54.8 94.9803C53.63 95.3803 54.32 97.9404 53.2 98.3804C39.64 113.1 17.87 155.63 14 174.68C9.17 189.04 5.78 201.01 3.5 218.68C0.0999999 244.98 0.1 246.68 0 433.38C0 500.66 6.10203e-06 543.3 0.100006 570.39V622.1H103.97V570.39C104.13 542.56 104.2 498.53 104.31 428.78C104.36 393.66 104.43 358.53 104.59 323.41C104.68 302.51 104.78 281.61 105.05 260.7C105.3 240.87 106.51 222.22 113.69 203.57C123.24 178.74 137.71 156.87 157.63 139.26C185.76 114.39 223.2 102.43 260.55 105.13C269.74 105.79 278.98 107.21 287.81 109.88C304.72 115.53 321.18 123.96 334.44 136C345.53 146.07 356.75 158.03 363.72 171.42C364.06 172.08 365 173.34 365 174.08H196.63V180.26H196.7V275.06C196.7 275.06 237.41 275.06 237.41 275.04C249.63 275.11 265.5 275.15 285.99 275.18C378.69 275.18 379.93 276.56 401.49 281.18C427.52 289.35 453.71 308.72 469.49 334.68C495.08 376.79 492.94 433.94 463.03 473.33C445.09 496.97 415.52 516.24 385.28 519.58C351.82 523.27 317.26 521.21 283.69 521.18H190.29C190.29 521.18 190.23 521.19 190.2 521.21H188.61V622.09C188.61 622.09 216.79 622.09 216.79 622.07C272.14 622.23 398.53 621.24 403.49 620.37C425.48 616.34 431.48 614.1 448.79 608.17C547.31 574.42 602.81 465.33 587.43 365.56C586.34 358.51 584.91 351.55 583.15 344.7V344.71Z" fill="url(#paint1_linear_8_25)"/>
<defs>
<linearGradient id="paint0_linear_8_25" x1="134.83" y1="286.83" x2="368.81" y2="450.62" gradientUnits="userSpaceOnUse">
<stop stop-color="#FA3E33"/>
<stop offset="0.5" stop-color="#F87A38"/>
<stop offset="1" stop-color="#FDB85B"/>
</linearGradient>
<linearGradient id="paint1_linear_8_25" x1="-91.74" y1="133.64" x2="508.68" y2="553.93" gradientUnits="userSpaceOnUse">
<stop stop-color="#FA3E33"/>
<stop offset="0.5" stop-color="#F87A38"/>
<stop offset="1" stop-color="#FDB85B"/>
</linearGradient>
</defs>
</svg>
